# xmcd
#
# Track frame offsets:
#	150
#	21930
#	39692
#	56357
#	73922
#	86032
#	105075
#	119352
#	133457
#	148675
#
# Disc length: 2189 seconds
#
# Revision: 0
# Processed by: cddbd v1.5.2PL0 Copyright (c) Steve Scherf et al.
# Submitted via: EasyCDDAExtractor 10.0.6.1
#
DISCID=91088b0a
DTITLE=BLB - Shadow knows
DYEAR=1900
DGENRE=Country
TTITLE0=Wirting on the wall
TTITLE1=Heart to the wall
TTITLE2=Shadows knows
TTITLE3=Count on me
TTITLE4=Cajun girl
TTITLE5=Could I be excused
TTITLE6=Blue eyes
TTITLE7=Reinvented love
TTITLE8=Sands of time
TTITLE9=Cajohn Love Bug
EXTD=
EXTT0=
EXTT1=
EXTT2=
EXTT3=
EXTT4=
EXTT5=
EXTT6=
EXTT7=
EXTT8=
EXTT9=
PLAYORDER=
